<svg width="192" height="192" viewBox="0 0 192 192" xmlns="http://www.w3.org/2000/svg">
  <defs>
    <linearGradient id="grad1" x1="0%" y1="0%" x2="100%" y2="100%">
      <stop offset="0%" style="stop-color:#007bff;stop-opacity:1" />
      <stop offset="100%" style="stop-color:#0056b3;stop-opacity:1" />
    </linearGradient>
  </defs>
  <rect width="192" height="192" rx="24" fill="url(#grad1)"/>
  <g transform="translate(48, 48)">
    <!-- Route icon -->
    <path d="M48 8C21.5 8 0 29.5 0 56s21.5 48 48 48 48-21.5 48-48S74.5 8 48 8zm0 8c22.1 0 40 17.9 40 40s-17.9 40-40 40S8 78.1 8 56s17.9-40 40-40z" fill="white"/>
    <circle cx="24" cy="32" r="6" fill="white"/>
    <circle cx="72" cy="32" r="6" fill="white"/>
    <circle cx="48" cy="80" r="6" fill="white"/>
    <path d="M24 32 L48 80 L72 32" stroke="white" stroke-width="3" fill="none" stroke-linecap="round" stroke-linejoin="round"/>
    <path d="M30 38 Q48 50 66 38" stroke="white" stroke-width="2" fill="none" stroke-linecap="round"/>
  </g>
</svg>
